<svg xmlns="http://www.w3.org/2000/svg" width="14" height="20" viewBox="0 0 14 20">
    <path fill="#727279" fill-rule="evenodd" d="M14 4v15c0 .552-.448 1-1 1H1c-.552 0-1-.448-1-1V4h14zM7 6c-.552 0-1 .448-1 1v10c0 .552.448 1 1 1s1-.448 1-1V7c0-.552-.448-1-1-1zm4 0c-.552 0-1 .448-1 1v10c0 .552.448 1 1 1s1-.448 1-1V7c0-.552-.448-1-1-1zM3 6c-.552 0-1 .448-1 1v10c0 .552.448 1 1 1s1-.448 1-1V7c0-.552-.448-1-1-1zm5-6c.552 0 1 .448 1 1h4c.552 0 1 .448 1 1v1H0V2c0-.552.448-1 1-1h4c0-.552.448-1 1-1h2z"/>
</svg>
