<svg xmlns="http://www.w3.org/2000/svg" width="110" height="21" viewBox="0 0 110 21">
    <g fill="none" fill-rule="evenodd">
        <path fill="#87BD40" d="M103.472 17.533c0-1.599 1.298-2.896 2.896-2.896 1.6 0 2.895 1.297 2.895 2.896s-1.295 2.895-2.895 2.895c-1.598 0-2.896-1.296-2.896-2.895"/>
        <path fill="#FEFEFE" d="M48.44 4.91c1.433 0 2.699.31 3.797.935 1.098.625 1.945 1.518 2.543 2.683.595 1.163.894 2.524.894 4.08 0 2.443-.64 4.349-1.924 5.714-1.283 1.367-3.08 2.05-5.388 2.05-2.214 0-3.975-.698-5.284-2.096-1.309-1.398-1.964-3.286-1.964-5.668 0-2.434.64-4.327 1.925-5.676 1.284-1.348 3.083-2.023 5.401-2.023zm46.912 0c2.196 0 3.894.585 5.09 1.76 1.197 1.172 1.796 2.862 1.796 5.068v2.294H93.24c.034.834.334 1.49.895 1.964.561.474 1.328.712 2.298.712.885 0 1.698-.087 2.439-.258.512-.118 1.055-.297 1.627-.53l.773 3.365c-.786.41-1.595.692-2.432.85-.841.157-1.845.238-3.012.238-2.428 0-4.315-.662-5.658-1.984-1.342-1.324-2.014-3.207-2.014-5.65 0-2.522.622-4.457 1.866-5.806 1.245-1.35 3.022-2.024 5.33-2.024zm-70.065 0c2.198 0 3.895.585 5.092 1.76 1.198 1.172 1.796 2.862 1.796 5.068v2.294h-8.998c.034.834.333 1.49.894 1.964.562.474 1.33.712 2.298.712.885 0 1.697-.087 2.44-.258.512-.118 1.054-.297 1.625-.53l.773 3.365c-.784.41-1.594.692-2.43.85-.841.157-1.846.238-3.012.238-2.43 0-4.315-.662-5.658-1.984-1.344-1.324-2.016-3.207-2.016-5.65 0-2.522.624-4.457 1.868-5.806 1.244-1.35 3.02-2.024 5.328-2.024zM71.544.476v4.696h3.211v3.862h-3.211v5.814c0 .966.454 1.45 1.363 1.45.68 0 1.488-.173 2.433-.515v3.759c-.678.296-1.323.51-1.937.637-.613.13-1.333.192-2.156.192-1.691 0-2.91-.425-3.657-1.272-.745-.848-1.12-2.15-1.12-3.908V9.035h-1.763V5.173h1.764V1.36l5.073-.882zm11.65 0v4.696h3.214v3.862h-3.213v5.814c0 .966.454 1.45 1.363 1.45.678 0 1.489-.173 2.433-.515v3.759c-.677.296-1.323.51-1.936.637-.615.13-1.333.192-2.158.192-1.69 0-2.909-.425-3.655-1.272-.746-.848-1.12-2.15-1.12-3.908V9.035h-1.765V5.173h1.765V1.301l5.073-.824zM6.77.084c3.138 0 5.561.823 7.269 2.466 1.708 1.644 2.561 4.018 2.561 7.123 0 3.34-.898 5.916-2.695 7.723-1.796 1.809-4.323 2.713-7.577 2.713H0V.084H6.77zM39.155 0v20.109h-5.034V0h5.034zm23.552 5.172V20.11h-5.034V5.172h5.034zm-14.32 3.573c-.772 0-1.325.324-1.66.97-.335.646-.501 1.61-.501 2.893 0 1.283.166 2.26.502 2.933.334.672.896 1.009 1.685 1.009.781 0 1.333-.337 1.655-1.01.322-.671.482-1.65.482-2.932 0-1.274-.163-2.237-.488-2.886-.326-.652-.884-.977-1.674-.977zM6.822 4.455H5.284V15.67H6.46c1.606 0 2.783-.476 3.532-1.431.749-.954 1.124-2.413 1.124-4.376 0-1.835-.355-3.195-1.064-4.082-.709-.885-1.784-1.328-3.23-1.328zm88.71 3.96c-.591 0-1.087.192-1.486.573-.4.383-.632.983-.702 1.8h4.324c-.015-.72-.215-1.295-.597-1.725-.38-.433-.894-.648-1.539-.648zm-70.063 0c-.593 0-1.087.192-1.486.573-.4.383-.634.983-.703 1.8h4.327c-.018-.72-.218-1.295-.6-1.725-.381-.433-.894-.648-1.538-.648zM62.708.001v3.365h-5.035V.001h5.034z"/>
    </g>
</svg>
