<svg xmlns="http://www.w3.org/2000/svg" width="19" height="19" viewBox="0 0 19 19">
    <path fill="#727279" fill-rule="evenodd" d="M9 1c.552 0 1 .448 1 1 0 .513-.386.936-.883.993L9 3H2v14h14v-7c0-.513.386-.936.883-.993L17 9c.513 0 .936.386.993.883L18 10v8c0 .513-.386.936-.883.993L17 19H1c-.513 0-.936-.386-.993-.883L0 18V2c0-.513.386-.936.883-.993L1 1h8zM7.05 9.121L9.88 11.95l-3.536.707.707-3.536zm7.778-7.778l2.829 2.829-7.071 7.07-2.829-2.828 7.071-7.07zM16.95.636l1.414 1.414c.39.39.39 1.024 0 1.414L15.536.636c.39-.39 1.023-.39 1.414 0z"/>
</svg>
