<svg xmlns="http://www.w3.org/2000/svg" width="16" height="21" viewBox="0 0 16 21">
    <path fill="#727279" fill-rule="evenodd" d="M12.596 8.732c1.953 1.953 2.01 5.062.126 6.945l-3.788 3.788c-1.882 1.883-4.992 1.826-6.944-.126-1.953-1.953-2.01-5.062-.127-6.945l3.788-3.788c1.883-1.883 4.993-1.826 6.945.126zm-1.515 1.515c-1.041-1.04-2.675-1.112-3.73-.19l-.128.12-3.788 3.788c-1.046 1.046-1.015 2.774.07 3.859 1.041 1.041 2.675 1.112 3.73.19l.128-.12 3.788-3.788c1.046-1.046 1.015-2.774-.07-3.859zm2.93-8.586c1.952 1.953 2.009 5.062.126 6.945l-.194.196c-.184-.274-.397-.534-.64-.777-.298-.298-.623-.552-.967-.762l.23-.228c1.045-1.046 1.014-2.774-.07-3.859-1.042-1.041-2.676-1.112-3.73-.19l-.129.12-3.788 3.788c-.51.51-.765 1.184-.765 1.865l-1.81 1.81C1.55 8.796 1.88 6.722 3.277 5.324l3.788-3.788c1.882-1.883 4.992-1.826 6.944.126zm-3.637 9.294c.25.249.443.532.58.834l-.605.605c-1.398 1.398-3.472 1.727-5.246 1.005l1.811-1.812c.625 0 1.243-.214 1.735-.644l.128-.12.54-.54c.384.137.747.361 1.057.672z"/>
</svg>
