<svg xmlns="http://www.w3.org/2000/svg" width="20" height="14" viewBox="0 0 20 14">
    <path fill="#DEDEDE" fill-rule="evenodd" d="M17.5 0C18.88 0 20 1.12 20 2.5S18.88 5 17.5 5c-.296 0-.58-.052-.845-.146L14.2 8.666c.493.457.801 1.11.801 1.834 0 1.38-1.12 2.5-2.5 2.5S10 11.88 10 10.5c0-.51.152-.983.414-1.378L8.878 7.586C8.483 7.848 8.009 8 7.5 8c-.483 0-.934-.137-1.316-.374l-1.63 2.448c.281.404.446.896.446 1.426C5 12.88 3.88 14 2.5 14S0 12.88 0 11.5 1.12 9 2.5 9c.483 0 .934.137 1.316.374l1.63-2.448C5.165 6.522 5 6.03 5 5.5 5 4.12 6.12 3 7.5 3S10 4.12 10 5.5c0 .51-.152.983-.414 1.378l1.536 1.536C11.517 8.152 11.991 8 12.5 8c.296 0 .58.052.845.146L15.8 4.334C15.308 3.877 15 3.224 15 2.5 15 1.12 16.12 0 17.5 0z"/>
</svg>
