<svg xmlns="http://www.w3.org/2000/svg" width="22" height="16" viewBox="0 0 22 16">
    <path fill="#DEDEDE" fill-rule="evenodd" d="M6.613.21l.094.083 5 5c.39.39.39 1.024 0 1.414-.36.36-.928.388-1.32.083l-.094-.083L7 3.414V15c0 .552-.448 1-1 1-.513 0-.936-.386-.993-.883L5 15V3.414L1.707 6.707c-.36.36-.928.388-1.32.083l-.094-.083c-.36-.36-.388-.928-.083-1.32l.083-.094 5-5c.36-.36.928-.388 1.32-.083zM16 0c.513 0 .936.386.993.883L17 1v11.586l3.293-3.293c.36-.36.928-.388 1.32-.083l.094.083c.36.36.388.928.083 1.32l-.083.094-5 5c-.36.36-.928.388-1.32.083l-.094-.083-5-5c-.39-.39-.39-1.024 0-1.414.36-.36.928-.388 1.32-.083l.094.083L15 12.586V1c0-.552.448-1 1-1z"/>
</svg>
