<svg xmlns="http://www.w3.org/2000/svg" width="13" height="19" viewBox="0 0 13 19">
    <path fill="#DEDEDE" fill-rule="evenodd" d="M12 0c.552 0 1 .448 1 1v17c0 .552-.448 1-1 1H1c-.552 0-1-.448-1-1V1c0-.552.448-1 1-1h11zM7.5 15h-5c-.276 0-.5.224-.5.5s.224.5.5.5h5c.276 0 .5-.224.5-.5s-.224-.5-.5-.5zm3-3h-8c-.276 0-.5.224-.5.5s.224.5.5.5h8c.276 0 .5-.224.5-.5s-.224-.5-.5-.5zm0-3h-8c-.276 0-.5.224-.5.5s.224.5.5.5h8c.276 0 .5-.224.5-.5s-.224-.5-.5-.5zm0-3h-8c-.276 0-.5.224-.5.5s.224.5.5.5h8c.276 0 .5-.224.5-.5s-.224-.5-.5-.5zm0-3h-8c-.276 0-.5.224-.5.5s.224.5.5.5h8c.276 0 .5-.224.5-.5s-.224-.5-.5-.5z"/>
</svg>
